<svg xmlns="http://www.w3.org/2000/svg" width="720" height="360"><rect width="720" height="360" fill="white"/><text x="35" y="34" font-family="Arial" font-size="22" font-weight="600">Quantitative Trading &amp; Market Microstructure System · example output</text><line x1="55" y1="285" x2="680" y2="285" stroke="#94a3b8"/><polyline points="70,285 184,205.83333333333334 298,253.33333333333331 412,142.49999999999997 526,190 640,95" fill="none" stroke="#334155" stroke-width="3"/><circle cx="70" cy="285" r="5" fill="#334155"/><text x="70" y="273" text-anchor="middle" font-family="Arial" font-size="14">0.2</text><text x="70" y="315" text-anchor="middle" font-family="Arial" font-size="14">T1</text><circle cx="184" cy="205.83333333333334" r="5" fill="#334155"/><text x="184" y="193.83333333333334" text-anchor="middle" font-family="Arial" font-size="14">0.7</text><text x="184" y="315" text-anchor="middle" font-family="Arial" font-size="14">T2</text><circle cx="298" cy="253.33333333333331" r="5" fill="#334155"/><text x="298" y="241.33333333333331" text-anchor="middle" font-family="Arial" font-size="14">0.4</text><text x="298" y="315" text-anchor="middle" font-family="Arial" font-size="14">T3</text><circle cx="412" cy="142.49999999999997" r="5" fill="#334155"/><text x="412" y="130.49999999999997" text-anchor="middle" font-family="Arial" font-size="14">1.1</text><text x="412" y="315" text-anchor="middle" font-family="Arial" font-size="14">T4</text><circle cx="526" cy="190" r="5" fill="#334155"/><text x="526" y="178" text-anchor="middle" font-family="Arial" font-size="14">0.8</text><text x="526" y="315" text-anchor="middle" font-family="Arial" font-size="14">T5</text><circle cx="640" cy="95" r="5" fill="#334155"/><text x="640" y="83" text-anchor="middle" font-family="Arial" font-size="14">1.4</text><text x="640" y="315" text-anchor="middle" font-family="Arial" font-size="14">T6</text></svg>