<svg xmlns="http://www.w3.org/2000/svg" width="1200" height="720" viewBox="0 0 1200 720">
 <rect width="1200" height="720" fill="#f8fafc"/>
 <text x="48" y="48" font-family="Inter,Arial,sans-serif" font-size="24" font-weight="700" fill="#0f172a">SC-10 · Real-time analytics</text>
 <text x="48" y="73" font-family="Inter,Arial,sans-serif" font-size="13" fill="#64748b">Streaming ingestion, live state and monitoring</text><rect x="48" y="104" width="650" height="560" rx="10" fill="#ffffff" stroke="#e2e8f0"/>
 <text x="66" y="132" font-family="Inter,Arial,sans-serif" font-size="15" font-weight="650" fill="#0f172a">Model / data flow</text><rect x="78" y="158" width="160" height="62" rx="8" fill="#fff" stroke="#e2e8f0"/>
   <text x="158" y="183" text-anchor="middle" font-family="Inter,Arial,sans-serif" font-size="11" font-weight="650" fill="#0f172a">Producer</text>
   <text x="158" y="202" text-anchor="middle" font-family="Inter,Arial,sans-serif" font-size="9.5" fill="#64748b">events</text><line x1="238" y1="189" x2="264" y2="189" stroke="#e2e8f0" stroke-width="2"/><rect x="274" y="158" width="160" height="62" rx="8" fill="#fff" stroke="#e2e8f0"/>
   <text x="354" y="183" text-anchor="middle" font-family="Inter,Arial,sans-serif" font-size="11" font-weight="650" fill="#0f172a">Kafka / Redpanda</text>
   <text x="354" y="202" text-anchor="middle" font-family="Inter,Arial,sans-serif" font-size="9.5" fill="#64748b">event bus</text><line x1="434" y1="189" x2="460" y2="189" stroke="#e2e8f0" stroke-width="2"/><rect x="470" y="158" width="160" height="62" rx="8" fill="#fff" stroke="#e2e8f0"/>
   <text x="550" y="183" text-anchor="middle" font-family="Inter,Arial,sans-serif" font-size="11" font-weight="650" fill="#0f172a">Consumer</text>
   <text x="550" y="202" text-anchor="middle" font-family="Inter,Arial,sans-serif" font-size="9.5" fill="#64748b">Python</text><rect x="78" y="278" width="160" height="62" rx="8" fill="#fff" stroke="#e2e8f0"/>
   <text x="158" y="303" text-anchor="middle" font-family="Inter,Arial,sans-serif" font-size="11" font-weight="650" fill="#0f172a">ClickHouse</text>
   <text x="158" y="322" text-anchor="middle" font-family="Inter,Arial,sans-serif" font-size="9.5" fill="#64748b">history</text><line x1="238" y1="309" x2="264" y2="309" stroke="#e2e8f0" stroke-width="2"/><rect x="274" y="278" width="160" height="62" rx="8" fill="#fff" stroke="#e2e8f0"/>
   <text x="354" y="303" text-anchor="middle" font-family="Inter,Arial,sans-serif" font-size="11" font-weight="650" fill="#0f172a">Redis</text>
   <text x="354" y="322" text-anchor="middle" font-family="Inter,Arial,sans-serif" font-size="9.5" fill="#64748b">live state</text><line x1="434" y1="309" x2="460" y2="309" stroke="#e2e8f0" stroke-width="2"/><rect x="470" y="278" width="160" height="62" rx="8" fill="#fff" stroke="#e2e8f0"/>
   <text x="550" y="303" text-anchor="middle" font-family="Inter,Arial,sans-serif" font-size="11" font-weight="650" fill="#0f172a">FastAPI</text>
   <text x="550" y="322" text-anchor="middle" font-family="Inter,Arial,sans-serif" font-size="9.5" fill="#64748b">query API</text><rect x="78" y="398" width="160" height="62" rx="8" fill="#fff" stroke="#e2e8f0"/>
   <text x="158" y="423" text-anchor="middle" font-family="Inter,Arial,sans-serif" font-size="11" font-weight="650" fill="#0f172a">WebSocket</text>
   <text x="158" y="442" text-anchor="middle" font-family="Inter,Arial,sans-serif" font-size="9.5" fill="#64748b">push</text><line x1="238" y1="429" x2="264" y2="429" stroke="#e2e8f0" stroke-width="2"/><rect x="274" y="398" width="160" height="62" rx="8" fill="#fff" stroke="#e2e8f0"/>
   <text x="354" y="423" text-anchor="middle" font-family="Inter,Arial,sans-serif" font-size="11" font-weight="650" fill="#0f172a">Grafana</text>
   <text x="354" y="442" text-anchor="middle" font-family="Inter,Arial,sans-serif" font-size="9.5" fill="#64748b">monitoring</text><line x1="434" y1="429" x2="460" y2="429" stroke="#e2e8f0" stroke-width="2"/><rect x="470" y="398" width="160" height="62" rx="8" fill="#fff" stroke="#e2e8f0"/>
   <text x="550" y="423" text-anchor="middle" font-family="Inter,Arial,sans-serif" font-size="11" font-weight="650" fill="#0f172a">Kubernetes</text>
   <text x="550" y="442" text-anchor="middle" font-family="Inter,Arial,sans-serif" font-size="9.5" fill="#64748b">runtime</text><rect x="726" y="104" width="426" height="560" rx="10" fill="#ffffff" stroke="#e2e8f0"/>
 <text x="744" y="132" font-family="Inter,Arial,sans-serif" font-size="15" font-weight="650" fill="#0f172a">Key measures / checks</text><rect x="748" y="150" width="382" height="28" fill="#f8fafc"/>
   <text x="758" y="168" font-family="Inter,Arial,sans-serif" font-size="10.5" fill="#0f172a">Throughput</text>
   <text x="1120" y="168" text-anchor="end" font-family="Inter,Arial,sans-serif" font-size="10.5" font-weight="600" fill="#0f172a">980 evt/s</text><rect x="748" y="178" width="382" height="28" fill="#ffffff"/>
   <text x="758" y="196" font-family="Inter,Arial,sans-serif" font-size="10.5" fill="#0f172a">Consumer lag</text>
   <text x="1120" y="196" text-anchor="end" font-family="Inter,Arial,sans-serif" font-size="10.5" font-weight="600" fill="#0f172a">0.8 s</text><rect x="748" y="206" width="382" height="28" fill="#f8fafc"/>
   <text x="758" y="224" font-family="Inter,Arial,sans-serif" font-size="10.5" fill="#0f172a">Query p95</text>
   <text x="1120" y="224" text-anchor="end" font-family="Inter,Arial,sans-serif" font-size="10.5" font-weight="600" fill="#0f172a">74 ms</text><rect x="748" y="234" width="382" height="28" fill="#ffffff"/>
   <text x="758" y="252" font-family="Inter,Arial,sans-serif" font-size="10.5" fill="#0f172a">Failed events</text>
   <text x="1120" y="252" text-anchor="end" font-family="Inter,Arial,sans-serif" font-size="10.5" font-weight="600" fill="#0f172a">0.2%</text><rect x="748" y="262" width="382" height="28" fill="#f8fafc"/>
   <text x="758" y="280" font-family="Inter,Arial,sans-serif" font-size="10.5" fill="#0f172a">Dashboard lag</text>
   <text x="1120" y="280" text-anchor="end" font-family="Inter,Arial,sans-serif" font-size="10.5" font-weight="600" fill="#0f172a">1.4 s</text><rect x="748" y="290" width="382" height="28" fill="#ffffff"/>
   <text x="758" y="308" font-family="Inter,Arial,sans-serif" font-size="10.5" fill="#0f172a">Tracing</text>
   <text x="1120" y="308" text-anchor="end" font-family="Inter,Arial,sans-serif" font-size="10.5" font-weight="600" fill="#0f172a">OpenTelemetry</text></svg>