<svg xmlns="http://www.w3.org/2000/svg" width="1200" height="720" viewBox="0 0 1200 720"><rect width="1200" height="720" fill="#f8fafc"/><text x="48" y="48" font-family="Inter,Arial,sans-serif" font-size="24" font-weight="700" fill="#0f172a">SC-24 · Financial scenario engine</text><text x="48" y="73" font-family="Inter,Arial,sans-serif" font-size="13" fill="#64748b">Revenue, free cash flow and ending cash by scenario</text><rect x="48" y="104" width="760" height="420" rx="10" fill="#fff" stroke="#e2e8f0"/><text x="66" y="132" font-family="Inter,Arial,sans-serif" font-size="15" font-weight="650" fill="#0f172a">Cash trajectory</text><line x1="112" y1="174" x2="768" y2="174" stroke="#e2e8f0"/><line x1="112" y1="244.5" x2="768" y2="244.5" stroke="#e2e8f0"/><line x1="112" y1="315" x2="768" y2="315" stroke="#e2e8f0"/><line x1="112" y1="385.5" x2="768" y2="385.5" stroke="#e2e8f0"/><line x1="112" y1="456" x2="768" y2="456" stroke="#e2e8f0"/><polyline points="112,388.8526770867975 171.63636363636363,387.680412371134 231.27272727272725,387.680412371134 290.9090909090909,388.8526770867975 350.5454545454545,391.19720651812435 410.1818181818182,394.7140006651147 469.8181818181818,398.2307948121051 529.4545454545455,402.9198536747589 589.090909090909,407.6089125374127 648.7272727272727,413.47023611572996 708.3636363636364,420.50382440971066 768,428.7096774193548" fill="none" stroke="#dc2626" stroke-width="2.5"/><circle cx="112" cy="388.8526770867975" r="3" fill="#dc2626"/><circle cx="171.63636363636363" cy="387.680412371134" r="3" fill="#dc2626"/><circle cx="231.27272727272725" cy="387.680412371134" r="3" fill="#dc2626"/><circle cx="290.9090909090909" cy="388.8526770867975" r="3" fill="#dc2626"/><circle cx="350.5454545454545" cy="391.19720651812435" r="3" fill="#dc2626"/><circle cx="410.1818181818182" cy="394.7140006651147" r="3" fill="#dc2626"/><circle cx="469.8181818181818" cy="398.2307948121051" r="3" fill="#dc2626"/><circle cx="529.4545454545455" cy="402.9198536747589" r="3" fill="#dc2626"/><circle cx="589.090909090909" cy="407.6089125374127" r="3" fill="#dc2626"/><circle cx="648.7272727272727" cy="413.47023611572996" r="3" fill="#dc2626"/><circle cx="708.3636363636364" cy="420.50382440971066" r="3" fill="#dc2626"/><circle cx="768" cy="428.7096774193548" r="3" fill="#dc2626"/><polyline points="112,388.8526770867975 171.63636363636363,385.3358829398071 231.27272727272725,380.64682407715327 290.9090909090909,374.78550049883603 350.5454545454545,367.75191220485533 410.1818181818182,359.54605919521117 469.8181818181818,350.16794146990355 529.4545454545455,339.6175590289325 589.090909090909,327.89491187229794 648.7272727272727,315 708.3636363636364,300.9328234120386 768,285.6933821084137" fill="none" stroke="#2563eb" stroke-width="2.5"/><circle cx="112" cy="388.8526770867975" r="3" fill="#2563eb"/><circle cx="171.63636363636363" cy="385.3358829398071" r="3" fill="#2563eb"/><circle cx="231.27272727272725" cy="380.64682407715327" r="3" fill="#2563eb"/><circle cx="290.9090909090909" cy="374.78550049883603" r="3" fill="#2563eb"/><circle cx="350.5454545454545" cy="367.75191220485533" r="3" fill="#2563eb"/><circle cx="410.1818181818182" cy="359.54605919521117" r="3" fill="#2563eb"/><circle cx="469.8181818181818" cy="350.16794146990355" r="3" fill="#2563eb"/><circle cx="529.4545454545455" cy="339.6175590289325" r="3" fill="#2563eb"/><circle cx="589.090909090909" cy="327.89491187229794" r="3" fill="#2563eb"/><circle cx="648.7272727272727" cy="315" r="3" fill="#2563eb"/><circle cx="708.3636363636364" cy="300.9328234120386" r="3" fill="#2563eb"/><circle cx="768" cy="285.6933821084137" r="3" fill="#2563eb"/><polyline points="112,388.8526770867975 171.63636363636363,382.9913535084802 231.27272727272725,374.78550049883603 290.9090909090909,365.4073827735284 350.5454545454545,353.68473561689393 410.1818181818182,339.6175590289325 469.8181818181818,323.20585300964416 529.4545454545455,304.4496175590289 589.090909090909,283.34885267708677 648.7272727272727,258.7312936481543 708.3636363636364,231.7692051878949 768,201.29032258064512" fill="none" stroke="#15803d" stroke-width="2.5"/><circle cx="112" cy="388.8526770867975" r="3" fill="#15803d"/><circle cx="171.63636363636363" cy="382.9913535084802" r="3" fill="#15803d"/><circle cx="231.27272727272725" cy="374.78550049883603" r="3" fill="#15803d"/><circle cx="290.9090909090909" cy="365.4073827735284" r="3" fill="#15803d"/><circle cx="350.5454545454545" cy="353.68473561689393" r="3" fill="#15803d"/><circle cx="410.1818181818182" cy="339.6175590289325" r="3" fill="#15803d"/><circle cx="469.8181818181818" cy="323.20585300964416" r="3" fill="#15803d"/><circle cx="529.4545454545455" cy="304.4496175590289" r="3" fill="#15803d"/><circle cx="589.090909090909" cy="283.34885267708677" r="3" fill="#15803d"/><circle cx="648.7272727272727" cy="258.7312936481543" r="3" fill="#15803d"/><circle cx="708.3636363636364" cy="231.7692051878949" r="3" fill="#15803d"/><circle cx="768" cy="201.29032258064512" r="3" fill="#15803d"/><text x="112" y="478" text-anchor="middle" font-family="Inter,Arial,sans-serif" font-size="9.5" fill="#64748b">M1</text><text x="171.63636363636363" y="478" text-anchor="middle" font-family="Inter,Arial,sans-serif" font-size="9.5" fill="#64748b">M2</text><text x="231.27272727272725" y="478" text-anchor="middle" font-family="Inter,Arial,sans-serif" font-size="9.5" fill="#64748b">M3</text><text x="290.9090909090909" y="478" text-anchor="middle" font-family="Inter,Arial,sans-serif" font-size="9.5" fill="#64748b">M4</text><text x="350.5454545454545" y="478" text-anchor="middle" font-family="Inter,Arial,sans-serif" font-size="9.5" fill="#64748b">M5</text><text x="410.1818181818182" y="478" text-anchor="middle" font-family="Inter,Arial,sans-serif" font-size="9.5" fill="#64748b">M6</text><text x="469.8181818181818" y="478" text-anchor="middle" font-family="Inter,Arial,sans-serif" font-size="9.5" fill="#64748b">M7</text><text x="529.4545454545455" y="478" text-anchor="middle" font-family="Inter,Arial,sans-serif" font-size="9.5" fill="#64748b">M8</text><text x="589.090909090909" y="478" text-anchor="middle" font-family="Inter,Arial,sans-serif" font-size="9.5" fill="#64748b">M9</text><text x="648.7272727272727" y="478" text-anchor="middle" font-family="Inter,Arial,sans-serif" font-size="9.5" fill="#64748b">M10</text><text x="708.3636363636364" y="478" text-anchor="middle" font-family="Inter,Arial,sans-serif" font-size="9.5" fill="#64748b">M11</text><text x="768" y="478" text-anchor="middle" font-family="Inter,Arial,sans-serif" font-size="9.5" fill="#64748b">M12</text><rect x="606" y="148" width="10" height="3" fill="#dc2626"/><text x="622" y="152" font-family="Inter,Arial,sans-serif" font-size="10" fill="#64748b">Downside</text><rect x="606" y="166" width="10" height="3" fill="#2563eb"/><text x="622" y="170" font-family="Inter,Arial,sans-serif" font-size="10" fill="#64748b">Base</text><rect x="606" y="184" width="10" height="3" fill="#15803d"/><text x="622" y="188" font-family="Inter,Arial,sans-serif" font-size="10" fill="#64748b">Upside</text><rect x="832" y="104" width="320" height="420" rx="10" fill="#fff" stroke="#e2e8f0"/><text x="850" y="132" font-family="Inter,Arial,sans-serif" font-size="15" font-weight="650" fill="#0f172a">Scenario assumptions</text><rect x="854" y="150" width="276" height="30" fill="#f8fafc"/><text x="864" y="169" font-family="Inter,Arial,sans-serif" font-size="10.5" fill="#0f172a">Downside growth</text><text x="1120" y="169" text-anchor="end" font-family="Inter,Arial,sans-serif" font-size="10.5" font-weight="600" fill="#0f172a">-4%</text><rect x="854" y="180" width="276" height="30" fill="#fff"/><text x="864" y="199" font-family="Inter,Arial,sans-serif" font-size="10.5" fill="#0f172a">Base growth</text><text x="1120" y="199" text-anchor="end" font-family="Inter,Arial,sans-serif" font-size="10.5" font-weight="600" fill="#0f172a">+12%</text><rect x="854" y="210" width="276" height="30" fill="#f8fafc"/><text x="864" y="229" font-family="Inter,Arial,sans-serif" font-size="10.5" fill="#0f172a">Upside growth</text><text x="1120" y="229" text-anchor="end" font-family="Inter,Arial,sans-serif" font-size="10.5" font-weight="600" fill="#0f172a">+22%</text><rect x="854" y="240" width="276" height="30" fill="#fff"/><text x="864" y="259" font-family="Inter,Arial,sans-serif" font-size="10.5" fill="#0f172a">Base gross margin</text><text x="1120" y="259" text-anchor="end" font-family="Inter,Arial,sans-serif" font-size="10.5" font-weight="600" fill="#0f172a">58%</text><rect x="854" y="270" width="276" height="30" fill="#f8fafc"/><text x="864" y="289" font-family="Inter,Arial,sans-serif" font-size="10.5" fill="#0f172a">Starting cash</text><text x="1120" y="289" text-anchor="end" font-family="Inter,Arial,sans-serif" font-size="10.5" font-weight="600" fill="#0f172a">€150k</text><rect x="854" y="300" width="276" height="30" fill="#fff"/><text x="864" y="319" font-family="Inter,Arial,sans-serif" font-size="10.5" fill="#0f172a">Horizon</text><text x="1120" y="319" text-anchor="end" font-family="Inter,Arial,sans-serif" font-size="10.5" font-weight="600" fill="#0f172a">12 months</text><rect x="48" y="552" width="258" height="84" rx="9" fill="#fff" stroke="#e2e8f0"/><text x="62" y="574" font-family="Inter,Arial,sans-serif" font-size="11" fill="#64748b">Base ending cash</text><text x="62" y="604" font-family="Inter,Arial,sans-serif" font-size="24" font-weight="700" fill="#0f172a">€238k</text><text x="62" y="624" font-family="Inter,Arial,sans-serif" font-size="10.5" fill="#64748b">example</text><rect x="324" y="552" width="258" height="84" rx="9" fill="#fff" stroke="#e2e8f0"/><text x="338" y="574" font-family="Inter,Arial,sans-serif" font-size="11" fill="#64748b">Downside</text><text x="338" y="604" font-family="Inter,Arial,sans-serif" font-size="24" font-weight="700" fill="#0f172a">€116k</text><text x="338" y="624" font-family="Inter,Arial,sans-serif" font-size="10.5" fill="#64748b">stress</text><rect x="600" y="552" width="258" height="84" rx="9" fill="#fff" stroke="#e2e8f0"/><text x="614" y="574" font-family="Inter,Arial,sans-serif" font-size="11" fill="#64748b">Upside</text><text x="614" y="604" font-family="Inter,Arial,sans-serif" font-size="24" font-weight="700" fill="#0f172a">€310k</text><text x="614" y="624" font-family="Inter,Arial,sans-serif" font-size="10.5" fill="#64748b">scenario</text><rect x="876" y="552" width="258" height="84" rx="9" fill="#fff" stroke="#e2e8f0"/><text x="890" y="574" font-family="Inter,Arial,sans-serif" font-size="11" fill="#64748b">Model type</text><text x="890" y="604" font-family="Inter,Arial,sans-serif" font-size="24" font-weight="700" fill="#0f172a">Driver-based</text><text x="890" y="624" font-family="Inter,Arial,sans-serif" font-size="10.5" fill="#64748b">monthly</text></svg>