<svg xmlns="http://www.w3.org/2000/svg" width="1200" height="720" viewBox="0 0 1200 720">
 <rect width="1200" height="720" fill="#f8fafc"/>
 <text x="48" y="48" font-family="Inter,Arial,sans-serif" font-size="24" font-weight="700" fill="#0f172a">SC-02 · Multi-agent orchestration</text>
 <text x="48" y="73" font-family="Inter,Arial,sans-serif" font-size="13" fill="#64748b">Planner → specialist → reviewer → executor</text><rect x="48" y="104" width="1104" height="118" rx="10" fill="#ffffff" stroke="#e2e8f0"/>
 <text x="66" y="132" font-family="Inter,Arial,sans-serif" font-size="15" font-weight="650" fill="#0f172a">Execution flow</text><rect x="72" y="142" width="162.66666666666666" height="62" rx="8" fill="#ffffff" stroke="#e2e8f0"/>
   <text x="153.33333333333331" y="167" text-anchor="middle" font-family="Inter,Arial,sans-serif" font-size="11" font-weight="600" fill="#0f172a">Request</text>
   <text x="153.33333333333331" y="186" text-anchor="middle" font-family="Inter,Arial,sans-serif" font-size="9.5" fill="#64748b">business task</text><line x1="238.66666666666666" y1="173" x2="246.66666666666666" y2="173" stroke="#64748b" stroke-width="1.5"/>
     <path d="M 246.66666666666666 169 L 252.66666666666666 173 L 246.66666666666666 177" fill="none" stroke="#64748b" stroke-width="1.5"/><rect x="250.66666666666666" y="142" width="162.66666666666666" height="62" rx="8" fill="#ffffff" stroke="#e2e8f0"/>
   <text x="332" y="167" text-anchor="middle" font-family="Inter,Arial,sans-serif" font-size="11" font-weight="600" fill="#0f172a">Planner</text>
   <text x="332" y="186" text-anchor="middle" font-family="Inter,Arial,sans-serif" font-size="9.5" fill="#64748b">decompose</text><line x1="417.3333333333333" y1="173" x2="425.3333333333333" y2="173" stroke="#64748b" stroke-width="1.5"/>
     <path d="M 425.3333333333333 169 L 431.3333333333333 173 L 425.3333333333333 177" fill="none" stroke="#64748b" stroke-width="1.5"/><rect x="429.3333333333333" y="142" width="162.66666666666666" height="62" rx="8" fill="#ffffff" stroke="#e2e8f0"/>
   <text x="510.66666666666663" y="167" text-anchor="middle" font-family="Inter,Arial,sans-serif" font-size="11" font-weight="600" fill="#0f172a">Specialists</text>
   <text x="510.66666666666663" y="186" text-anchor="middle" font-family="Inter,Arial,sans-serif" font-size="9.5" fill="#64748b">parallel work</text><line x1="596" y1="173" x2="604" y2="173" stroke="#64748b" stroke-width="1.5"/>
     <path d="M 604 169 L 610 173 L 604 177" fill="none" stroke="#64748b" stroke-width="1.5"/><rect x="608" y="142" width="162.66666666666666" height="62" rx="8" fill="#ffffff" stroke="#e2e8f0"/>
   <text x="689.3333333333334" y="167" text-anchor="middle" font-family="Inter,Arial,sans-serif" font-size="11" font-weight="600" fill="#0f172a">Reviewer</text>
   <text x="689.3333333333334" y="186" text-anchor="middle" font-family="Inter,Arial,sans-serif" font-size="9.5" fill="#64748b">quality gate</text><line x1="774.6666666666666" y1="173" x2="782.6666666666666" y2="173" stroke="#64748b" stroke-width="1.5"/>
     <path d="M 782.6666666666666 169 L 788.6666666666666 173 L 782.6666666666666 177" fill="none" stroke="#64748b" stroke-width="1.5"/><rect x="786.6666666666666" y="142" width="162.66666666666666" height="62" rx="8" fill="#ffffff" stroke="#e2e8f0"/>
   <text x="868" y="167" text-anchor="middle" font-family="Inter,Arial,sans-serif" font-size="11" font-weight="600" fill="#0f172a">Approval</text>
   <text x="868" y="186" text-anchor="middle" font-family="Inter,Arial,sans-serif" font-size="9.5" fill="#64748b">policy</text><line x1="953.3333333333333" y1="173" x2="961.3333333333333" y2="173" stroke="#64748b" stroke-width="1.5"/>
     <path d="M 961.3333333333333 169 L 967.3333333333333 173 L 961.3333333333333 177" fill="none" stroke="#64748b" stroke-width="1.5"/><rect x="965.3333333333333" y="142" width="162.66666666666666" height="62" rx="8" fill="#eff6ff" stroke="#2563eb"/>
   <text x="1046.6666666666665" y="167" text-anchor="middle" font-family="Inter,Arial,sans-serif" font-size="11" font-weight="600" fill="#0f172a">Executor</text>
   <text x="1046.6666666666665" y="186" text-anchor="middle" font-family="Inter,Arial,sans-serif" font-size="9.5" fill="#64748b">controlled action</text><rect x="48" y="246" width="258" height="84" rx="9" fill="#ffffff" stroke="#e2e8f0"/>
 <text x="62" y="268" font-family="Inter,Arial,sans-serif" font-size="11" fill="#64748b">Mean confidence</text>
 <text x="62" y="298" font-family="Inter,Arial,sans-serif" font-size="24" font-weight="700" fill="#0f172a">0.86</text>
 <text x="62" y="318" font-family="Inter,Arial,sans-serif" font-size="10.5" fill="#64748b">reviewed</text><rect x="324" y="246" width="258" height="84" rx="9" fill="#ffffff" stroke="#e2e8f0"/>
 <text x="338" y="268" font-family="Inter,Arial,sans-serif" font-size="11" fill="#64748b">Hand-offs</text>
 <text x="338" y="298" font-family="Inter,Arial,sans-serif" font-size="24" font-weight="700" fill="#0f172a">4</text>
 <text x="338" y="318" font-family="Inter,Arial,sans-serif" font-size="10.5" fill="#64748b">traceable</text><rect x="600" y="246" width="258" height="84" rx="9" fill="#ffffff" stroke="#e2e8f0"/>
 <text x="614" y="268" font-family="Inter,Arial,sans-serif" font-size="11" fill="#64748b">Review gate</text>
 <text x="614" y="298" font-family="Inter,Arial,sans-serif" font-size="24" font-weight="700" fill="#0f172a">Pass</text>
 <text x="614" y="318" font-family="Inter,Arial,sans-serif" font-size="10.5" fill="#64748b">threshold 0.80</text><rect x="876" y="246" width="258" height="84" rx="9" fill="#ffffff" stroke="#e2e8f0"/>
 <text x="890" y="268" font-family="Inter,Arial,sans-serif" font-size="11" fill="#64748b">Execution</text>
 <text x="890" y="298" font-family="Inter,Arial,sans-serif" font-size="24" font-weight="700" fill="#0f172a">1</text>
 <text x="890" y="318" font-family="Inter,Arial,sans-serif" font-size="10.5" fill="#64748b">approved</text><rect x="48" y="354" width="524" height="310" rx="10" fill="#ffffff" stroke="#e2e8f0"/>
 <text x="66" y="382" font-family="Inter,Arial,sans-serif" font-size="15" font-weight="650" fill="#0f172a">Operational evidence</text><rect x="70" y="398" width="480" height="28" fill="#f8fafc"/>
   <text x="80" y="416" font-family="Inter,Arial,sans-serif" font-size="10.5" fill="#0f172a">plan_created</text>
   <text x="540" y="416" text-anchor="end" font-family="Inter,Arial,sans-serif" font-size="10.5" font-weight="600" fill="#0f172a">5 steps</text><rect x="70" y="426" width="480" height="28" fill="#ffffff"/>
   <text x="80" y="444" font-family="Inter,Arial,sans-serif" font-size="10.5" fill="#0f172a">specialist_findings</text>
   <text x="540" y="444" text-anchor="end" font-family="Inter,Arial,sans-serif" font-size="10.5" font-weight="600" fill="#0f172a">3</text><rect x="70" y="454" width="480" height="28" fill="#f8fafc"/>
   <text x="80" y="472" font-family="Inter,Arial,sans-serif" font-size="10.5" fill="#0f172a">mean_confidence</text>
   <text x="540" y="472" text-anchor="end" font-family="Inter,Arial,sans-serif" font-size="10.5" font-weight="600" fill="#0f172a">0.86</text><rect x="70" y="482" width="480" height="28" fill="#ffffff"/>
   <text x="80" y="500" font-family="Inter,Arial,sans-serif" font-size="10.5" fill="#0f172a">review_status</text>
   <text x="540" y="500" text-anchor="end" font-family="Inter,Arial,sans-serif" font-size="10.5" font-weight="600" fill="#0f172a">approved</text><rect x="70" y="510" width="480" height="28" fill="#f8fafc"/>
   <text x="80" y="528" font-family="Inter,Arial,sans-serif" font-size="10.5" fill="#0f172a">execution</text>
   <text x="540" y="528" text-anchor="end" font-family="Inter,Arial,sans-serif" font-size="10.5" font-weight="600" fill="#0f172a">completed</text><rect x="596" y="354" width="556" height="310" rx="10" fill="#ffffff" stroke="#e2e8f0"/>
 <text x="614" y="382" font-family="Inter,Arial,sans-serif" font-size="15" font-weight="650" fill="#0f172a">Run profile</text><line x1="646" y1="606" x2="1118" y2="606" stroke="#e2e8f0" stroke-width="1"/><line x1="646" y1="561.5" x2="1118" y2="561.5" stroke="#e2e8f0" stroke-width="1"/><line x1="646" y1="517" x2="1118" y2="517" stroke="#e2e8f0" stroke-width="1"/><line x1="646" y1="472.5" x2="1118" y2="472.5" stroke="#e2e8f0" stroke-width="1"/><line x1="646" y1="428" x2="1118" y2="428" stroke="#e2e8f0" stroke-width="1"/><rect x="648" y="553.0238095238095" width="107" height="52.976190476190474" rx="4" fill="#2563eb" opacity="0.88"/>
  <text x="701.5" y="546.0238095238095" text-anchor="middle" font-family="Inter,Arial,sans-serif" font-size="10.5" fill="#0f172a">1</text>
  <text x="701.5" y="626" text-anchor="middle" font-family="Inter,Arial,sans-serif" font-size="10" fill="#64748b">Plan</text><rect x="769" y="447.07142857142856" width="107" height="158.92857142857142" rx="4" fill="#0f766e" opacity="0.88"/>
  <text x="822.5" y="440.07142857142856" text-anchor="middle" font-family="Inter,Arial,sans-serif" font-size="10.5" fill="#0f172a">3</text>
  <text x="822.5" y="626" text-anchor="middle" font-family="Inter,Arial,sans-serif" font-size="10" fill="#64748b">Specialists</text><rect x="890" y="553.0238095238095" width="107" height="52.976190476190474" rx="4" fill="#d97706" opacity="0.88"/>
  <text x="943.5" y="546.0238095238095" text-anchor="middle" font-family="Inter,Arial,sans-serif" font-size="10.5" fill="#0f172a">1</text>
  <text x="943.5" y="626" text-anchor="middle" font-family="Inter,Arial,sans-serif" font-size="10" fill="#64748b">Review</text><rect x="1011" y="553.0238095238095" width="107" height="52.976190476190474" rx="4" fill="#7c3aed" opacity="0.88"/>
  <text x="1064.5" y="546.0238095238095" text-anchor="middle" font-family="Inter,Arial,sans-serif" font-size="10.5" fill="#0f172a">1</text>
  <text x="1064.5" y="626" text-anchor="middle" font-family="Inter,Arial,sans-serif" font-size="10" fill="#64748b">Execute</text></svg>