<svg xmlns="http://www.w3.org/2000/svg" width="1200" height="720" viewBox="0 0 1200 720"><rect width="1200" height="720" fill="#f8fafc"/><text x="48" y="48" font-family="Inter,Arial,sans-serif" font-size="24" font-weight="700" fill="#0f172a">SC-18 · Credit risk &amp; profit</text><text x="48" y="73" font-family="Inter,Arial,sans-serif" font-size="13" fill="#64748b">Risk probability versus expected contribution</text><rect x="48" y="104" width="640" height="410" rx="10" fill="#fff" stroke="#e2e8f0"/><text x="66" y="132" font-family="Inter,Arial,sans-serif" font-size="15" font-weight="650" fill="#0f172a">Decision surface</text><line x1="116" y1="438" x2="648" y2="438" stroke="#64748b"/><line x1="116" y1="170" x2="116" y2="438" stroke="#64748b"/><circle cx="224.8181818181818" cy="247.42222222222222" r="9" fill="#15803d" opacity=".8"/><text x="233.8181818181818" y="241.42222222222222" font-family="Inter,Arial,sans-serif" font-size="9.5" fill="#64748b">A1 approve</text><circle cx="345.72727272727275" cy="212.43333333333334" r="10" fill="#15803d" opacity=".8"/><text x="354.72727272727275" y="206.43333333333334" font-family="Inter,Arial,sans-serif" font-size="9.5" fill="#64748b">A2 approve</text><circle cx="466.6363636363636" cy="333.0333333333333" r="9" fill="#d97706" opacity=".8"/><text x="475.6363636363636" y="327.0333333333333" font-family="Inter,Arial,sans-serif" font-size="9.5" fill="#64748b">A3 review</text><circle cx="551.2727272727273" cy="409.7111111111111" r="9" fill="#dc2626" opacity=".8"/><text x="560.2727272727273" y="403.7111111111111" font-family="Inter,Arial,sans-serif" font-size="9.5" fill="#64748b">A4 decline</text><circle cx="285.2727272727273" cy="298.0444444444444" r="8" fill="#15803d" opacity=".8"/><text x="294.2727272727273" y="292.0444444444444" font-family="Inter,Arial,sans-serif" font-size="9.5" fill="#64748b">A5 approve</text><text x="368" y="468" text-anchor="middle" font-family="Inter,Arial,sans-serif" font-size="10" fill="#64748b">Probability of default</text><text x="82" y="306" transform="rotate(-90 82 306)" text-anchor="middle" font-family="Inter,Arial,sans-serif" font-size="10" fill="#64748b">Expected contribution (€)</text><rect x="712" y="104" width="440" height="410" rx="10" fill="#fff" stroke="#e2e8f0"/><text x="730" y="132" font-family="Inter,Arial,sans-serif" font-size="15" font-weight="650" fill="#0f172a">Decision metrics</text><rect x="734" y="150" width="396" height="30" fill="#f8fafc"/><text x="744" y="169" font-family="Inter,Arial,sans-serif" font-size="10.5" fill="#0f172a">ROC AUC</text><text x="1120" y="169" text-anchor="end" font-family="Inter,Arial,sans-serif" font-size="10.5" font-weight="600" fill="#0f172a">0.872</text><rect x="734" y="180" width="396" height="30" fill="#fff"/><text x="744" y="199" font-family="Inter,Arial,sans-serif" font-size="10.5" fill="#0f172a">PR AUC</text><text x="1120" y="199" text-anchor="end" font-family="Inter,Arial,sans-serif" font-size="10.5" font-weight="600" fill="#0f172a">0.635</text><rect x="734" y="210" width="396" height="30" fill="#f8fafc"/><text x="744" y="229" font-family="Inter,Arial,sans-serif" font-size="10.5" fill="#0f172a">Approval rate</text><text x="1120" y="229" text-anchor="end" font-family="Inter,Arial,sans-serif" font-size="10.5" font-weight="600" fill="#0f172a">62%</text><rect x="734" y="240" width="396" height="30" fill="#fff"/><text x="744" y="259" font-family="Inter,Arial,sans-serif" font-size="10.5" fill="#0f172a">Expected loss / exposure</text><text x="1120" y="259" text-anchor="end" font-family="Inter,Arial,sans-serif" font-size="10.5" font-weight="600" fill="#0f172a">4.8%</text><rect x="734" y="270" width="396" height="30" fill="#f8fafc"/><text x="744" y="289" font-family="Inter,Arial,sans-serif" font-size="10.5" fill="#0f172a">Review band</text><text x="1120" y="289" text-anchor="end" font-family="Inter,Arial,sans-serif" font-size="10.5" font-weight="600" fill="#0f172a">PD &gt; 12%</text><rect x="734" y="300" width="396" height="30" fill="#fff"/><text x="744" y="319" font-family="Inter,Arial,sans-serif" font-size="10.5" fill="#0f172a">Explainability</text><text x="1120" y="319" text-anchor="end" font-family="Inter,Arial,sans-serif" font-size="10.5" font-weight="600" fill="#0f172a">SHAP</text><rect x="48" y="542" width="258" height="84" rx="9" fill="#fff" stroke="#e2e8f0"/><text x="62" y="564" font-family="Inter,Arial,sans-serif" font-size="11" fill="#64748b">Approved</text><text x="62" y="594" font-family="Inter,Arial,sans-serif" font-size="24" font-weight="700" fill="#0f172a">62%</text><text x="62" y="614" font-family="Inter,Arial,sans-serif" font-size="10.5" fill="#64748b">policy + economics</text><rect x="324" y="542" width="258" height="84" rx="9" fill="#fff" stroke="#e2e8f0"/><text x="338" y="564" font-family="Inter,Arial,sans-serif" font-size="11" fill="#64748b">Expected loss</text><text x="338" y="594" font-family="Inter,Arial,sans-serif" font-size="24" font-weight="700" fill="#0f172a">4.8%</text><text x="338" y="614" font-family="Inter,Arial,sans-serif" font-size="10.5" fill="#64748b">portfolio</text><rect x="600" y="542" width="258" height="84" rx="9" fill="#fff" stroke="#e2e8f0"/><text x="614" y="564" font-family="Inter,Arial,sans-serif" font-size="11" fill="#64748b">Review band</text><text x="614" y="594" font-family="Inter,Arial,sans-serif" font-size="24" font-weight="700" fill="#0f172a">12–18% PD</text><text x="614" y="614" font-family="Inter,Arial,sans-serif" font-size="10.5" fill="#64748b">manual</text><rect x="876" y="542" width="258" height="84" rx="9" fill="#fff" stroke="#e2e8f0"/><text x="890" y="564" font-family="Inter,Arial,sans-serif" font-size="11" fill="#64748b">Serving</text><text x="890" y="594" font-family="Inter,Arial,sans-serif" font-size="24" font-weight="700" fill="#0f172a">FastAPI</text><text x="890" y="614" font-family="Inter,Arial,sans-serif" font-size="10.5" fill="#64748b">decision API</text></svg>