<svg xmlns="http://www.w3.org/2000/svg" width="1200" height="720" viewBox="0 0 1200 720">
<rect width="1200" height="720" fill="#F5F7FA"/>
<rect width="1200" height="68" fill="#102235"/><rect y="68" width="1200" height="5" fill="#2E7D74"/>
<text x="34" y="31" font-family="Inter,Arial,sans-serif" font-size="23" font-weight="700" fill="#fff">SC-14 · Executive Decision System</text>
<text x="34" y="52" font-family="Inter,Arial,sans-serif" font-size="11" fill="#B9C7D4">Executive revenue, margin, pipeline and plan variance · representative Power BI interface</text>
<text x="1166" y="31" text-anchor="end" font-family="Inter,Arial,sans-serif" font-size="11" font-weight="600" fill="#D7E1EA">POWER BI · PUBLIC PORTFOLIO</text><rect x="28" y="91" width="1144" height="48" rx="7" fill="#fff" stroke="#D7DEE6"/><text x="48" y="108" font-family="Inter,Arial,sans-serif" font-size="9.5" font-weight="700" fill="#71808F">PERIOD</text><text x="48" y="128" font-family="Inter,Arial,sans-serif" font-size="12" font-weight="600" fill="#102235">Q3 2026</text><text x="323" y="108" font-family="Inter,Arial,sans-serif" font-size="9.5" font-weight="700" fill="#71808F">REGION</text><text x="323" y="128" font-family="Inter,Arial,sans-serif" font-size="12" font-weight="600" fill="#102235">All</text><text x="598" y="108" font-family="Inter,Arial,sans-serif" font-size="9.5" font-weight="700" fill="#71808F">BUSINESS UNIT</text><text x="598" y="128" font-family="Inter,Arial,sans-serif" font-size="12" font-weight="600" fill="#102235">Core</text><text x="873" y="108" font-family="Inter,Arial,sans-serif" font-size="9.5" font-weight="700" fill="#71808F">OWNER</text><text x="873" y="128" font-family="Inter,Arial,sans-serif" font-size="12" font-weight="600" fill="#102235">All</text><rect x="28" y="158" width="271" height="94" rx="7" fill="#fff" stroke="#D7DEE6"/>
<rect x="28" y="158" width="5" height="94" rx="2" fill="#2E7D74"/>
<text x="46" y="182" font-family="Inter,Arial,sans-serif" font-size="10" font-weight="700" fill="#667788">REVENUE</text>
<text x="46" y="215" font-family="Inter,Arial,sans-serif" font-size="24" font-weight="700" fill="#102235">€8.42M</text>
<text x="46" y="237" font-family="Inter,Arial,sans-serif" font-size="9.5" fill="#7A8997">+6.8% vs plan</text><rect x="314" y="158" width="271" height="94" rx="7" fill="#fff" stroke="#D7DEE6"/>
<rect x="314" y="158" width="5" height="94" rx="2" fill="#5577A3"/>
<text x="332" y="182" font-family="Inter,Arial,sans-serif" font-size="10" font-weight="700" fill="#667788">GROSS MARGIN</text>
<text x="332" y="215" font-family="Inter,Arial,sans-serif" font-size="24" font-weight="700" fill="#102235">31.4%</text>
<text x="332" y="237" font-family="Inter,Arial,sans-serif" font-size="9.5" fill="#7A8997">+1.9pp vs plan</text><rect x="600" y="158" width="271" height="94" rx="7" fill="#fff" stroke="#D7DEE6"/>
<rect x="600" y="158" width="5" height="94" rx="2" fill="#7D6AA5"/>
<text x="618" y="182" font-family="Inter,Arial,sans-serif" font-size="10" font-weight="700" fill="#667788">PIPELINE COVERAGE</text>
<text x="618" y="215" font-family="Inter,Arial,sans-serif" font-size="24" font-weight="700" fill="#102235">3.2×</text>
<text x="618" y="237" font-family="Inter,Arial,sans-serif" font-size="9.5" fill="#7A8997">healthy</text><rect x="886" y="158" width="271" height="94" rx="7" fill="#fff" stroke="#D7DEE6"/>
<rect x="886" y="158" width="5" height="94" rx="2" fill="#B78158"/>
<text x="904" y="182" font-family="Inter,Arial,sans-serif" font-size="10" font-weight="700" fill="#667788">CONVERSION</text>
<text x="904" y="215" font-family="Inter,Arial,sans-serif" font-size="24" font-weight="700" fill="#102235">27.8%</text>
<text x="904" y="237" font-family="Inter,Arial,sans-serif" font-size="9.5" fill="#7A8997">+3.1pp QoQ</text><rect x="28" y="270" width="730" height="250" rx="7" fill="#fff" stroke="#D7DEE6"/>
<text x="46" y="297" font-family="Inter,Arial,sans-serif" font-size="12.5" font-weight="700" fill="#102235">Revenue &amp; margin vs plan</text>
<line x1="46" y1="306" x2="740" y2="306" stroke="#E7EBF0"/><line x1="64" y1="333" x2="728" y2="333" stroke="#EEF1F4"/><line x1="64" y1="377" x2="728" y2="377" stroke="#EEF1F4"/><line x1="64" y1="421" x2="728" y2="421" stroke="#EEF1F4"/><line x1="64" y1="465" x2="728" y2="465" stroke="#EEF1F4"/><rect x="72" y="421.1" width="22" height="64.9" rx="2" fill="#BDD4D0"/><rect x="124" y="407.9" width="22" height="78.10000000000001" rx="2" fill="#BDD4D0"/><rect x="176" y="402.95" width="22" height="83.05000000000001" rx="2" fill="#BDD4D0"/><rect x="228" y="395.25" width="22" height="90.75000000000001" rx="2" fill="#BDD4D0"/><rect x="280" y="388.1" width="22" height="97.9" rx="2" fill="#BDD4D0"/><rect x="332" y="382.6" width="22" height="103.4" rx="2" fill="#BDD4D0"/><rect x="384" y="373.8" width="22" height="112.2" rx="2" fill="#BDD4D0"/><rect x="436" y="368.3" width="22" height="117.7" rx="2" fill="#BDD4D0"/><rect x="488" y="361.7" width="22" height="124.30000000000001" rx="2" fill="#BDD4D0"/><rect x="540" y="355.1" width="22" height="130.9" rx="2" fill="#BDD4D0"/><rect x="592" y="349.6" width="22" height="136.4" rx="2" fill="#BDD4D0"/><rect x="644" y="340.79999999999995" width="22" height="145.20000000000002" rx="2" fill="#BDD4D0"/><polyline points="83,404.8 135,396.8 187,392 239,393.6 291,380.8 343,374.4 395,376 447,363.2 499,356.8 551,360 603,350.4 655,342.4" fill="none" stroke="#2E7D74" stroke-width="3"/><circle cx="83" cy="404.8" r="3" fill="#2E7D74"/><circle cx="135" cy="396.8" r="3" fill="#2E7D74"/><circle cx="187" cy="392" r="3" fill="#2E7D74"/><circle cx="239" cy="393.6" r="3" fill="#2E7D74"/><circle cx="291" cy="380.8" r="3" fill="#2E7D74"/><circle cx="343" cy="374.4" r="3" fill="#2E7D74"/><circle cx="395" cy="376" r="3" fill="#2E7D74"/><circle cx="447" cy="363.2" r="3" fill="#2E7D74"/><circle cx="499" cy="356.8" r="3" fill="#2E7D74"/><circle cx="551" cy="360" r="3" fill="#2E7D74"/><circle cx="603" cy="350.4" r="3" fill="#2E7D74"/><circle cx="655" cy="342.4" r="3" fill="#2E7D74"/><line x1="64" y1="365" x2="728" y2="365" stroke="#A990BC" stroke-width="2" stroke-dasharray="6 5"/><rect x="776" y="270" width="396" height="250" rx="7" fill="#fff" stroke="#D7DEE6"/>
<text x="794" y="297" font-family="Inter,Arial,sans-serif" font-size="12.5" font-weight="700" fill="#102235">Pipeline by stage</text>
<line x1="794" y1="306" x2="1154" y2="306" stroke="#E7EBF0"/><text x="798" y="337" font-family="Inter,Arial,sans-serif" font-size="10.5" fill="#536474">Qualified</text><rect x="884" y="325" width="236" height="16" rx="3" fill="#EEF2F5"/><rect x="884" y="325" width="236" height="16" rx="3" fill="#9CCBC4"/><text x="1142" y="337" text-anchor="end" font-family="Inter,Arial,sans-serif" font-size="10.5" font-weight="700" fill="#102235">€3.10M</text><text x="798" y="381" font-family="Inter,Arial,sans-serif" font-size="10.5" fill="#536474">Proposal</text><rect x="884" y="369" width="236" height="16" rx="3" fill="#EEF2F5"/><rect x="884" y="369" width="167.48387096774195" height="16" rx="3" fill="#7FAFA8"/><text x="1142" y="381" text-anchor="end" font-family="Inter,Arial,sans-serif" font-size="10.5" font-weight="700" fill="#102235">€2.20M</text><text x="798" y="425" font-family="Inter,Arial,sans-serif" font-size="10.5" fill="#536474">Negotiation</text><rect x="884" y="413" width="236" height="16" rx="3" fill="#EEF2F5"/><rect x="884" y="413" width="110.38709677419354" height="16" rx="3" fill="#5E8F89"/><text x="1142" y="425" text-anchor="end" font-family="Inter,Arial,sans-serif" font-size="10.5" font-weight="700" fill="#102235">€1.45M</text><text x="798" y="469" font-family="Inter,Arial,sans-serif" font-size="10.5" fill="#536474">Committed</text><rect x="884" y="457" width="236" height="16" rx="3" fill="#EEF2F5"/><rect x="884" y="457" width="62.42580645161289" height="16" rx="3" fill="#2E7D74"/><text x="1142" y="469" text-anchor="end" font-family="Inter,Arial,sans-serif" font-size="10.5" font-weight="700" fill="#102235">€0.82M</text><rect x="28" y="540" width="1144" height="145" rx="7" fill="#fff" stroke="#D7DEE6"/>
<text x="46" y="567" font-family="Inter,Arial,sans-serif" font-size="12.5" font-weight="700" fill="#102235">Management questions answered</text>
<line x1="46" y1="576" x2="1154" y2="576" stroke="#E7EBF0"/><rect x="46" y="568" width="1108" height="28" fill="#FAFBFC"/><text x="60" y="586" font-family="Inter,Arial,sans-serif" font-size="10.5" font-weight="700" fill="#102235">Plan variance</text><text x="238" y="586" font-family="Inter,Arial,sans-serif" font-size="10.5" fill="#536474">Where is revenue off-plan and by how much?</text><text x="1118" y="586" text-anchor="end" font-family="Inter,Arial,sans-serif" font-size="10.5" fill="#536474">Segment → product → owner</text><rect x="46" y="598" width="1108" height="28" fill="#fff"/><text x="60" y="616" font-family="Inter,Arial,sans-serif" font-size="10.5" font-weight="700" fill="#102235">Margin mix</text><text x="238" y="616" font-family="Inter,Arial,sans-serif" font-size="10.5" fill="#536474">Which combinations dilute contribution?</text><text x="1118" y="616" text-anchor="end" font-family="Inter,Arial,sans-serif" font-size="10.5" fill="#536474">Customer / product drill-down</text><rect x="46" y="628" width="1108" height="28" fill="#FAFBFC"/><text x="60" y="646" font-family="Inter,Arial,sans-serif" font-size="10.5" font-weight="700" fill="#102235">Pipeline quality</text><text x="238" y="646" font-family="Inter,Arial,sans-serif" font-size="10.5" fill="#536474">Is future coverage sufficient for target?</text><text x="1118" y="646" text-anchor="end" font-family="Inter,Arial,sans-serif" font-size="10.5" fill="#536474">Stage, value and conversion</text><text x="28" y="707" font-family="Inter,Arial,sans-serif" font-size="9" fill="#7D8995">Sanitized reconstruction based on genuine Power BI design references; public illustrative data only.</text></svg>