<svg xmlns="http://www.w3.org/2000/svg" width="1200" height="720" viewBox="0 0 1200 720"><rect width="1200" height="720" fill="#f8fafc"/><text x="48" y="48" font-family="Inter,Arial,sans-serif" font-size="24" font-weight="700" fill="#0f172a">SC-26 · Portfolio allocation</text><text x="48" y="73" font-family="Inter,Arial,sans-serif" font-size="13" fill="#64748b">Risk / return candidates under allocation constraints</text><rect x="48" y="104" width="700" height="410" rx="10" fill="#fff" stroke="#e2e8f0"/><text x="66" y="132" font-family="Inter,Arial,sans-serif" font-size="15" font-weight="650" fill="#0f172a">Risk–return map</text><line x1="116" y1="438" x2="708" y2="438" stroke="#64748b"/><line x1="116" y1="170" x2="116" y2="438" stroke="#64748b"/><circle cx="449" cy="283.15555555555557" r="8" fill="#64748b" opacity=".8"/><text x="458" y="277.15555555555557" font-family="Inter,Arial,sans-serif" font-size="9.5" fill="#64748b">Equal</text><circle cx="574.8" cy="235.5111111111111" r="10" fill="#2563eb" opacity=".8"/><text x="583.8" y="229.5111111111111" font-family="Inter,Arial,sans-serif" font-size="9.5" fill="#64748b">Growth</text><circle cx="293.59999999999997" cy="342.7111111111111" r="9" fill="#15803d" opacity=".8"/><text x="302.59999999999997" y="336.7111111111111" font-family="Inter,Arial,sans-serif" font-size="9.5" fill="#64748b">Defensive</text><circle cx="382.3999999999999" cy="295.0666666666666" r="11" fill="#7c3aed" opacity=".8"/><text x="391.3999999999999" y="289.0666666666666" font-family="Inter,Arial,sans-serif" font-size="9.5" fill="#64748b">Selected</text><text x="398" y="468" text-anchor="middle" font-family="Inter,Arial,sans-serif" font-size="10" fill="#64748b">Volatility proxy</text><text x="82" y="306" transform="rotate(-90 82 306)" text-anchor="middle" font-family="Inter,Arial,sans-serif" font-size="10" fill="#64748b">Expected return</text><rect x="772" y="104" width="380" height="410" rx="10" fill="#fff" stroke="#e2e8f0"/><text x="790" y="132" font-family="Inter,Arial,sans-serif" font-size="15" font-weight="650" fill="#0f172a">Selected allocation</text><rect x="794" y="150" width="336" height="30" fill="#f8fafc"/><text x="804" y="169" font-family="Inter,Arial,sans-serif" font-size="10.5" fill="#0f172a">Equity</text><text x="1120" y="169" text-anchor="end" font-family="Inter,Arial,sans-serif" font-size="10.5" font-weight="600" fill="#0f172a">40%</text><rect x="794" y="180" width="336" height="30" fill="#fff"/><text x="804" y="199" font-family="Inter,Arial,sans-serif" font-size="10.5" fill="#0f172a">Credit</text><text x="1120" y="199" text-anchor="end" font-family="Inter,Arial,sans-serif" font-size="10.5" font-weight="600" fill="#0f172a">10%</text><rect x="794" y="210" width="336" height="30" fill="#f8fafc"/><text x="804" y="229" font-family="Inter,Arial,sans-serif" font-size="10.5" fill="#0f172a">Bonds</text><text x="1120" y="229" text-anchor="end" font-family="Inter,Arial,sans-serif" font-size="10.5" font-weight="600" fill="#0f172a">50%</text><rect x="794" y="240" width="336" height="30" fill="#fff"/><text x="804" y="259" font-family="Inter,Arial,sans-serif" font-size="10.5" fill="#0f172a">Expected return</text><text x="1120" y="259" text-anchor="end" font-family="Inter,Arial,sans-serif" font-size="10.5" font-weight="600" fill="#0f172a">6.9%</text><rect x="794" y="270" width="336" height="30" fill="#f8fafc"/><text x="804" y="289" font-family="Inter,Arial,sans-serif" font-size="10.5" fill="#0f172a">Volatility</text><text x="1120" y="289" text-anchor="end" font-family="Inter,Arial,sans-serif" font-size="10.5" font-weight="600" fill="#0f172a">8.6%</text><rect x="794" y="300" width="336" height="30" fill="#fff"/><text x="804" y="319" font-family="Inter,Arial,sans-serif" font-size="10.5" fill="#0f172a">Return / risk</text><text x="1120" y="319" text-anchor="end" font-family="Inter,Arial,sans-serif" font-size="10.5" font-weight="600" fill="#0f172a">0.80</text><rect x="48" y="542" width="258" height="84" rx="9" fill="#fff" stroke="#e2e8f0"/><text x="62" y="564" font-family="Inter,Arial,sans-serif" font-size="11" fill="#64748b">VaR</text><text x="62" y="594" font-family="Inter,Arial,sans-serif" font-size="24" font-weight="700" fill="#0f172a">-5.8%</text><text x="62" y="614" font-family="Inter,Arial,sans-serif" font-size="10.5" fill="#64748b">illustrative</text><rect x="324" y="542" width="258" height="84" rx="9" fill="#fff" stroke="#e2e8f0"/><text x="338" y="564" font-family="Inter,Arial,sans-serif" font-size="11" fill="#64748b">CVaR</text><text x="338" y="594" font-family="Inter,Arial,sans-serif" font-size="24" font-weight="700" fill="#0f172a">-8.4%</text><text x="338" y="614" font-family="Inter,Arial,sans-serif" font-size="10.5" fill="#64748b">illustrative</text><rect x="600" y="542" width="258" height="84" rx="9" fill="#fff" stroke="#e2e8f0"/><text x="614" y="564" font-family="Inter,Arial,sans-serif" font-size="11" fill="#64748b">Max asset weight</text><text x="614" y="594" font-family="Inter,Arial,sans-serif" font-size="24" font-weight="700" fill="#0f172a">60%</text><text x="614" y="614" font-family="Inter,Arial,sans-serif" font-size="10.5" fill="#64748b">constraint</text><rect x="876" y="542" width="258" height="84" rx="9" fill="#fff" stroke="#e2e8f0"/><text x="890" y="564" font-family="Inter,Arial,sans-serif" font-size="11" fill="#64748b">Optimizer</text><text x="890" y="594" font-family="Inter,Arial,sans-serif" font-size="24" font-weight="700" fill="#0f172a">CVXPY</text><text x="890" y="614" font-family="Inter,Arial,sans-serif" font-size="10.5" fill="#64748b">constrained</text></svg>